<mxfile host="app.diagrams.net" modified="2024-04-27T20:54:05.580Z" agent="Mozilla/5.0 (Macintosh; Intel Mac OS X 10_15_7) AppleWebKit/537.36 (KHTML, like Gecko) Chrome/124.0.0.0 Safari/537.36" etag="QIl2FE-EoaI-tMpP9LtP" version="24.2.8" type="github">
  <diagram name="PÃ¡gina-1" id="fh45Sw1o85wzkQd8TUYy">
    <mxGraphModel dx="2680" dy="650" grid="1" gridSize="10" guides="1" tooltips="1" connect="1" arrows="1" fold="1" page="1" pageScale="1" pageWidth="827" pageHeight="1169" math="0" shadow="0">
      <root>
        <mxCell id="0" />
        <mxCell id="1" parent="0" />
        <mxCell id="QrtproMrHh4IBVWKwY2D-1" value="CRUCERO" style="whiteSpace=wrap;html=1;align=center;fillColor=#dae8fc;strokeColor=#6c8ebf;" vertex="1" parent="1">
          <mxGeometry x="-520" y="280" width="100" height="40" as="geometry" />
        </mxCell>
        <mxCell id="QrtproMrHh4IBVWKwY2D-2" value="1 : 1" style="text;strokeColor=none;fillColor=none;spacingLeft=4;spacingRight=4;overflow=hidden;rotatable=0;points=[[0,0.5],[1,0.5]];portConstraint=eastwest;fontSize=12;whiteSpace=wrap;html=1;fontStyle=1" vertex="1" parent="1">
          <mxGeometry x="-470" y="250" width="40" height="30" as="geometry" />
        </mxCell>
        <mxCell id="QrtproMrHh4IBVWKwY2D-3" value="1 : 1" style="text;strokeColor=none;fillColor=none;spacingLeft=4;spacingRight=4;overflow=hidden;rotatable=0;points=[[0,0.5],[1,0.5]];portConstraint=eastwest;fontSize=12;whiteSpace=wrap;html=1;fontStyle=1" vertex="1" parent="1">
          <mxGeometry x="-470" y="320" width="40" height="30" as="geometry" />
        </mxCell>
        <mxCell id="QrtproMrHh4IBVWKwY2D-4" value="1 : 1" style="text;strokeColor=none;fillColor=none;spacingLeft=4;spacingRight=4;overflow=hidden;rotatable=0;points=[[0,0.5],[1,0.5]];portConstraint=eastwest;fontSize=12;whiteSpace=wrap;html=1;fontStyle=1" vertex="1" parent="1">
          <mxGeometry x="-560" y="270" width="40" height="30" as="geometry" />
        </mxCell>
        <mxCell id="QrtproMrHh4IBVWKwY2D-5" value="1 : 1" style="text;strokeColor=none;fillColor=none;spacingLeft=4;spacingRight=4;overflow=hidden;rotatable=0;points=[[0,0.5],[1,0.5]];portConstraint=eastwest;fontSize=12;whiteSpace=wrap;html=1;fontStyle=1" vertex="1" parent="1">
          <mxGeometry x="-420" y="270" width="40" height="30" as="geometry" />
        </mxCell>
        <mxCell id="QrtproMrHh4IBVWKwY2D-6" value="CruceroID" style="ellipse;whiteSpace=wrap;html=1;align=center;fontStyle=4;fillColor=#d5e8d4;strokeColor=#82b366;" vertex="1" parent="1">
          <mxGeometry x="-650" y="200" width="100" height="40" as="geometry" />
        </mxCell>
        <mxCell id="QrtproMrHh4IBVWKwY2D-7" value="Modelo" style="ellipse;whiteSpace=wrap;html=1;align=center;fillColor=#d5e8d4;strokeColor=#82b366;" vertex="1" parent="1">
          <mxGeometry x="-390" y="200" width="100" height="40" as="geometry" />
        </mxCell>
        <mxCell id="QrtproMrHh4IBVWKwY2D-8" value="Capacidad" style="ellipse;whiteSpace=wrap;html=1;align=center;fillColor=#d5e8d4;strokeColor=#82b366;" vertex="1" parent="1">
          <mxGeometry x="-390" y="350" width="100" height="40" as="geometry" />
        </mxCell>
        <mxCell id="QrtproMrHh4IBVWKwY2D-9" value="Nombre" style="ellipse;whiteSpace=wrap;html=1;align=center;fillColor=#d5e8d4;strokeColor=#82b366;" vertex="1" parent="1">
          <mxGeometry x="-650" y="350" width="100" height="40" as="geometry" />
        </mxCell>
        <mxCell id="QrtproMrHh4IBVWKwY2D-10" value="" style="endArrow=none;html=1;rounded=0;" edge="1" parent="1" source="QrtproMrHh4IBVWKwY2D-6" target="QrtproMrHh4IBVWKwY2D-1">
          <mxGeometry relative="1" as="geometry">
            <mxPoint x="-577" y="240" as="sourcePoint" />
            <mxPoint x="-417" y="240" as="targetPoint" />
          </mxGeometry>
        </mxCell>
        <mxCell id="QrtproMrHh4IBVWKwY2D-11" value="" style="endArrow=none;html=1;rounded=0;" edge="1" parent="1" source="QrtproMrHh4IBVWKwY2D-7" target="QrtproMrHh4IBVWKwY2D-1">
          <mxGeometry relative="1" as="geometry">
            <mxPoint x="-397" y="215.9" as="sourcePoint" />
            <mxPoint x="-237" y="215.9" as="targetPoint" />
          </mxGeometry>
        </mxCell>
        <mxCell id="QrtproMrHh4IBVWKwY2D-12" value="" style="endArrow=none;html=1;rounded=0;" edge="1" parent="1" source="QrtproMrHh4IBVWKwY2D-1" target="QrtproMrHh4IBVWKwY2D-9">
          <mxGeometry relative="1" as="geometry">
            <mxPoint x="-297" y="360" as="sourcePoint" />
            <mxPoint x="-137" y="360" as="targetPoint" />
          </mxGeometry>
        </mxCell>
        <mxCell id="QrtproMrHh4IBVWKwY2D-13" value="" style="endArrow=none;html=1;rounded=0;" edge="1" parent="1" source="QrtproMrHh4IBVWKwY2D-1" target="QrtproMrHh4IBVWKwY2D-8">
          <mxGeometry relative="1" as="geometry">
            <mxPoint x="-347" y="360" as="sourcePoint" />
            <mxPoint x="-187" y="360" as="targetPoint" />
          </mxGeometry>
        </mxCell>
        <mxCell id="QrtproMrHh4IBVWKwY2D-14" value="Define" style="shape=rhombus;perimeter=rhombusPerimeter;whiteSpace=wrap;html=1;align=center;fillColor=#ffe6cc;strokeColor=#d79b00;" vertex="1" parent="1">
          <mxGeometry x="-863" y="272.5" width="100" height="50" as="geometry" />
        </mxCell>
        <mxCell id="QrtproMrHh4IBVWKwY2D-15" value="ITINERARIO" style="whiteSpace=wrap;html=1;align=center;fillColor=#dae8fc;strokeColor=#6c8ebf;" vertex="1" parent="1">
          <mxGeometry x="-1140" y="277.5" width="100" height="40" as="geometry" />
        </mxCell>
        <mxCell id="QrtproMrHh4IBVWKwY2D-16" value="" style="endArrow=none;html=1;rounded=0;" edge="1" parent="1" source="QrtproMrHh4IBVWKwY2D-15" target="QrtproMrHh4IBVWKwY2D-14">
          <mxGeometry relative="1" as="geometry">
            <mxPoint x="-543" y="387.5" as="sourcePoint" />
            <mxPoint x="-383" y="387.5" as="targetPoint" />
          </mxGeometry>
        </mxCell>
        <mxCell id="QrtproMrHh4IBVWKwY2D-17" value="1 : 1" style="text;strokeColor=none;fillColor=none;spacingLeft=4;spacingRight=4;overflow=hidden;rotatable=0;points=[[0,0.5],[1,0.5]];portConstraint=eastwest;fontSize=12;whiteSpace=wrap;html=1;fontStyle=1" vertex="1" parent="1">
          <mxGeometry x="-1090" y="317.5" width="40" height="30" as="geometry" />
        </mxCell>
        <mxCell id="QrtproMrHh4IBVWKwY2D-18" value="1 : 1" style="text;strokeColor=none;fillColor=none;spacingLeft=4;spacingRight=4;overflow=hidden;rotatable=0;points=[[0,0.5],[1,0.5]];portConstraint=eastwest;fontSize=12;whiteSpace=wrap;html=1;fontStyle=1" vertex="1" parent="1">
          <mxGeometry x="-833" y="242.5" width="40" height="30" as="geometry" />
        </mxCell>
        <mxCell id="QrtproMrHh4IBVWKwY2D-19" value="1 : 1" style="text;strokeColor=none;fillColor=none;spacingLeft=4;spacingRight=4;overflow=hidden;rotatable=0;points=[[0,0.5],[1,0.5]];portConstraint=eastwest;fontSize=12;whiteSpace=wrap;html=1;fontStyle=1" vertex="1" parent="1">
          <mxGeometry x="-1040" y="267.5" width="40" height="30" as="geometry" />
        </mxCell>
        <mxCell id="QrtproMrHh4IBVWKwY2D-20" value="ItinerarioID" style="ellipse;whiteSpace=wrap;html=1;align=center;fontStyle=4;fillColor=#d5e8d4;strokeColor=#82b366;" vertex="1" parent="1">
          <mxGeometry x="-1330" y="237.5" width="100" height="40" as="geometry" />
        </mxCell>
        <mxCell id="QrtproMrHh4IBVWKwY2D-21" value="Nombre" style="ellipse;whiteSpace=wrap;html=1;align=center;fillColor=#d5e8d4;strokeColor=#82b366;" vertex="1" parent="1">
          <mxGeometry x="-1330" y="317.5" width="100" height="40" as="geometry" />
        </mxCell>
        <mxCell id="QrtproMrHh4IBVWKwY2D-22" value="" style="endArrow=none;html=1;rounded=0;" edge="1" parent="1" source="QrtproMrHh4IBVWKwY2D-20" target="QrtproMrHh4IBVWKwY2D-15">
          <mxGeometry relative="1" as="geometry">
            <mxPoint x="-1170" y="377.5" as="sourcePoint" />
            <mxPoint x="-1010" y="377.5" as="targetPoint" />
          </mxGeometry>
        </mxCell>
        <mxCell id="QrtproMrHh4IBVWKwY2D-23" value="" style="endArrow=none;html=1;rounded=0;" edge="1" parent="1" source="QrtproMrHh4IBVWKwY2D-21" target="QrtproMrHh4IBVWKwY2D-15">
          <mxGeometry relative="1" as="geometry">
            <mxPoint x="-1210" y="397.5" as="sourcePoint" />
            <mxPoint x="-1050" y="397.5" as="targetPoint" />
          </mxGeometry>
        </mxCell>
        <mxCell id="QrtproMrHh4IBVWKwY2D-24" value="ItinerarioID" style="ellipse;whiteSpace=wrap;html=1;align=center;fontStyle=4;fillColor=#d5e8d4;strokeColor=#82b366;" vertex="1" parent="1">
          <mxGeometry x="-1330" y="237.5" width="100" height="40" as="geometry" />
        </mxCell>
        <mxCell id="QrtproMrHh4IBVWKwY2D-25" value="" style="endArrow=none;html=1;rounded=0;" edge="1" parent="1" source="QrtproMrHh4IBVWKwY2D-14" target="QrtproMrHh4IBVWKwY2D-1">
          <mxGeometry relative="1" as="geometry">
            <mxPoint x="-830" y="410" as="sourcePoint" />
            <mxPoint x="-670" y="410" as="targetPoint" />
          </mxGeometry>
        </mxCell>
      </root>
    </mxGraphModel>
  </diagram>
</mxfile>
